<?xml version="1.0" standalone="no"?>
<!DOCTYPE svg PUBLIC "-//W3C//DTD SVG 20010904//EN"
 "http://www.w3.org/TR/2001/REC-SVG-20010904/DTD/svg10.dtd">
<svg version="1.0" xmlns="http://www.w3.org/2000/svg"
 width="100.000000pt" height="100.000000pt" viewBox="0 0 100.000000 100.000000"
 preserveAspectRatio="xMidYMid meet">
<metadata>
Created by potrace 1.14, written by Peter Selinger 2001-2017
</metadata>
<g transform="translate(0.000000,100.000000) scale(0.100000,-0.100000)"
fill="#000000" stroke="none">
<path d="M429 809 c-19 -11 -47 -31 -61 -47 -35 -37 -85 -137 -99 -198 l-12
-52 -95 4 c-52 1 -97 5 -100 8 -12 13 -42 -29 -42 -59 0 -49 47 -133 92 -162
63 -42 143 -52 417 -48 135 1 258 3 272 4 41 2 113 57 156 120 38 55 40 60 28
89 -20 46 -38 51 -165 46 l-115 -5 -27 88 c-56 181 -151 262 -249 212z m500
-416 c-34 -43 -63 -73 -66 -69 -4 4 67 86 75 86 2 0 -2 -8 -9 -17z m-732 -89
c63 -9 92 -24 33 -17 -58 7 -127 39 -142 66 -9 17 -3 15 25 -10 25 -22 51 -34
84 -39z m645 4 c-9 -9 -47 -13 -110 -14 l-97 -2 97 7 c53 3 100 9 104 14 4 4
10 7 13 7 3 0 -1 -6 -7 -12z m-382 -22 c8 -2 -30 -4 -85 -3 -67 0 -85 2 -55 6
42 6 106 4 140 -3z m90 10 c0 -3 -4 -8 -10 -11 -5 -3 -10 -1 -10 4 0 6 5 11
10 11 6 0 10 -2 10 -4z m53 -3 c-7 -2 -21 -2 -30 0 -10 3 -4 5 12 5 17 0 24
-2 18 -5z"/>
</g>
</svg>
